<?xml version="1.0" encoding="UTF-8"?><svg width="122.04" height="60" id="a" xmlns="http://www.w3.org/2000/svg" viewBox="0 0 792.71 389.74"><defs><style>.b{fill:#fff;}</style></defs><g><path class="b" d="M0,268.08v-.28c0-27.72,20.72-50.69,49.57-50.69,17.78,0,28.42,6.3,38.23,15.54l-7.56,8.12c-8.26-7.84-17.5-13.44-30.8-13.44-21.7,0-37.95,17.64-37.95,40.19v.28c0,22.68,16.38,40.46,37.95,40.46,13.44,0,22.26-5.18,31.64-14.14l7.28,7.14c-10.22,10.36-21.42,17.22-39.21,17.22-28.28,0-49.15-22.26-49.15-50.41Z"/><path class="b" d="M99.96,280.96v-.28c0-20.44,15.96-37.81,37.81-37.81s37.66,17.08,37.66,37.53v.28c0,20.44-16.1,37.8-37.95,37.8s-37.53-17.08-37.53-37.53Zm64.41,0v-.28c0-15.54-11.62-28.29-26.88-28.29s-26.46,12.74-26.46,28v.28c0,15.54,11.48,28.14,26.74,28.14s26.6-12.6,26.6-27.86Z"/><path class="b" d="M194.89,244.42h10.78v12.18c4.76-7.14,11.2-13.72,23.38-13.72s19.32,6.3,23.24,14.42c5.18-7.98,12.88-14.42,25.48-14.42,16.66,0,26.88,11.2,26.88,29.12v44.81h-10.78v-42.29c0-14-7-21.84-18.76-21.84-10.92,0-19.88,8.12-19.88,22.4v41.73h-10.78v-42.57c0-13.58-7.14-21.56-18.62-21.56s-20.16,9.52-20.16,22.82v41.31h-10.78v-72.39Z"/><path class="b" d="M328.03,244.42h10.78v12.18c4.76-7.14,11.2-13.72,23.38-13.72s19.32,6.3,23.24,14.42c5.18-7.98,12.88-14.42,25.48-14.42,16.66,0,26.88,11.2,26.88,29.12v44.81h-10.78v-42.29c0-14-7-21.84-18.76-21.84-10.92,0-19.88,8.12-19.88,22.4v41.73h-10.78v-42.57c0-13.58-7.14-21.56-18.62-21.56s-20.16,9.52-20.16,22.82v41.31h-10.78v-72.39Z"/><path class="b" d="M460.06,289.36v-44.95h10.78v42.29c0,13.44,7.28,21.84,20.02,21.84s21.7-9.1,21.7-22.68v-41.45h10.64v72.39h-10.64v-12.6c-4.9,7.84-12.32,14.14-24.78,14.14-17.5,0-27.72-11.76-27.72-28.98Z"/><path class="b" d="M547.42,244.42h10.78v12.6c4.76-7.84,12.32-14.14,24.78-14.14,17.5,0,27.72,11.76,27.72,28.98v44.95h-10.78v-42.29c0-13.44-7.28-21.84-20.02-21.84s-21.7,9.1-21.7,22.68v41.44h-10.78v-72.39Z"/><path class="b" d="M633.94,216.69h12.32v11.9h-12.32v-11.9Zm.7,27.72h10.78v72.39h-10.78v-72.39Z"/><path class="b" d="M674.26,297.62v-43.69h-10.08v-9.52h10.08v-21.84h10.78v21.84h22.96v9.52h-22.96v42.29c0,8.82,4.9,12.04,12.18,12.04,3.64,0,6.72-.7,10.5-2.52v9.24c-3.78,1.96-7.84,3.08-13.02,3.08-11.62,0-20.44-5.74-20.44-20.44Z"/><path class="b" d="M781.23,244.42h11.48l-30.39,74.77c-6.16,14.98-13.16,20.44-24.08,20.44-6.02,0-10.5-1.26-15.4-3.64l3.64-8.54c3.5,1.82,6.72,2.66,11.34,2.66,6.44,0,10.5-3.36,14.84-13.58l-32.91-72.11h11.9l26.32,60.35,23.24-60.35Z"/></g><g><path class="b" d="M24.14,339.62c6.37,13.16,12.95,25.48,20.09,38.57,2.8-5.46,13.93-25.62,20.79-38.57h.91c2.1,17.92,3.5,33.18,5.74,49.21-1.12-.21-2.17-.35-3.29-.35s-2.17,.14-3.29,.35c-.98-12.53-1.96-24.15-3.43-36.12h-.14c-6.37,11.69-12.81,23.17-18.34,35.77h-.63c-5.46-11.62-11.9-23.66-17.99-35.77h-.14c-1.33,11.55-3.29,28.21-3.36,36.12-.84-.21-1.61-.35-2.45-.35s-1.61,.14-2.45,.35c2.45-15.47,5.25-34.37,6.79-49.21h1.19Z"/><path class="b" d="M110.39,354.67c9.8,0,14.49,6.51,14.49,14.28,0,.91-.07,1.82-.14,2.73-5.04-.07-10.01-.21-14.98-.21-3.08,0-6.09,.14-9.17,.21-.07,.7-.07,1.33-.07,1.96,0,7.28,4.34,12.95,12.11,12.95,3.71,0,8.05-2.17,10.5-4.97l.35,.21-.42,3.43c-2.8,2.24-7.35,4.27-11.69,4.27-10.08,0-17.01-7.14-17.01-16.45,0-11.34,5.74-18.41,16.03-18.41Zm-9.66,14.35c2.87,.07,6.16,.21,9.1,.21s6.37-.14,9.31-.21c0-4.97-1.33-12.11-8.61-12.11-6.86,0-9.45,7.07-9.8,12.11Z"/><path class="b" d="M172.9,381.97h-.14c-1.4,2.94-4.97,7.56-11.83,7.56s-14.21-5.18-14.21-17.22,7.77-17.64,15.05-17.64c5.18,0,8.82,2.45,10.78,7h.14c0-8.82,0-19.81-.28-25.83,1.12,.14,2.17,.35,3.15,.35s1.96-.21,3.15-.35c-.63,5.88-.84,24.22-.84,36.19,0,6.37,.14,11.2,.21,16.8-1.05-.14-1.89-.35-2.73-.35s-1.68,.21-2.66,.35l.21-6.86Zm-10.36,4.97c7.28,0,10.43-7.91,10.43-15.54,0-8.82-3.57-13.79-10.22-13.79s-9.87,6.65-9.87,15.12c0,11.2,5.11,14.21,9.66,14.21Z"/><path class="b" d="M209.3,339.62c1.96,0,3.57,1.61,3.57,3.57s-1.61,3.57-3.57,3.57-3.57-1.61-3.57-3.57,1.61-3.57,3.57-3.57Zm-2.59,28.84c0-4.2-.14-9.1-.56-13.09,1.05,.21,2.1,.35,3.15,.35s2.1-.14,3.15-.35c-.42,3.99-.56,8.89-.56,13.09v7.28c0,4.2,.14,9.1,.56,13.09-1.05-.21-2.1-.35-3.15-.35s-2.1,.14-3.15,.35c.42-3.99,.56-8.89,.56-13.09v-7.28Z"/><path class="b" d="M256.69,354.67c5.11,0,9.52,1.47,11.27,3.08-.63,1.4-1.19,2.94-1.54,4.62h-.56c-1.33-2.38-4.55-5.46-8.96-5.46-8.47,0-11.9,6.51-11.9,15.12,0,9.59,4.34,14.56,12.11,14.56,3.71,0,8.05-2.17,10.5-4.97l.35,.21c-.21,1.12-.35,2.31-.42,3.43-2.8,2.24-7.35,4.27-11.69,4.27-8.12,0-17.01-4.9-17.01-17.43s8.89-17.43,17.85-17.43Z"/><path class="b" d="M293.8,358.73c4.2-3.15,7.56-4.06,11.27-4.06,6.72,0,11.34,4.13,11.34,10.36,0,5.25-.28,10.43-.28,16.31,0,2.31,0,5.18,2.73,5.18,.42,0,.98,0,1.47-.28v1.54c-.98,.42-2.66,.98-4.48,.98-3.01,0-4.55-1.96-4.83-4.34-3.36,3.36-6.23,5.11-10.99,5.11s-9.31-3.29-9.31-8.61c0-5.6,3.78-8.61,9.87-9.59,10.15-1.61,10.5-2.17,10.5-4.9,0-4.69-2.1-8.82-7.7-8.82-3.71,0-7.21,1.75-8.82,4.76h-.77v-3.64Zm17.29,12.46c-4.83,1.61-14.63,1.12-14.63,8.75,0,4.41,3.01,6.65,6.09,6.65,3.57,0,6.65-2.31,8.26-4.9l.28-10.5Z"/><path class="b" d="M346.79,356c0-6.44-.14-15.47-.56-20.16,1.05,.21,2.1,.35,3.15,.35s2.1-.14,3.15-.35c-.42,4.69-.56,13.72-.56,20.16v12.67c0,6.44,.14,15.47,.56,20.16-1.05-.21-2.1-.35-3.15-.35s-2.1,.14-3.15,.35c.42-4.69,.56-13.72,.56-20.16v-12.67Z"/><path class="b" d="M417.63,379.52c1.54,3.29,5.04,7.28,11.06,7.28s10.01-4.55,10.01-10.15c0-12.88-22.05-7.35-22.05-23.8,0-7.77,5.88-13.23,15.19-13.23,4.41,0,7.56,1.05,10.36,3.29-.84,1.61-1.33,3.22-1.89,5.88h-.84c-.98-2.59-3.08-6.58-8.33-6.58s-9.03,3.57-9.03,8.68c0,13.09,22.05,7.63,22.05,23.1,0,8.54-6.37,15.75-17.15,15.75-5.81,0-9.1-2.03-11.55-3.99,.84-2.17,1.05-3.57,1.33-6.23h.84Z"/><path class="b" d="M482.66,354.67c9.8,0,14.49,6.51,14.49,14.28,0,.91-.07,1.82-.14,2.73-5.04-.07-10.01-.21-14.98-.21-3.08,0-6.09,.14-9.17,.21-.07,.7-.07,1.33-.07,1.96,0,7.28,4.34,12.95,12.11,12.95,3.71,0,8.05-2.17,10.5-4.97l.35,.21-.42,3.43c-2.8,2.24-7.35,4.27-11.69,4.27-10.08,0-17.01-7.14-17.01-16.45,0-11.34,5.74-18.41,16.03-18.41Zm-9.66,14.35c2.87,.07,6.16,.21,9.1,.21s6.37-.14,9.31-.21c0-4.97-1.33-12.11-8.61-12.11-6.86,0-9.45,7.07-9.8,12.11Z"/><path class="b" d="M537.41,361.11c-.49-.56-2.03-1.12-3.43-1.12-4.48,0-7.14,4.27-7.14,9.73,0,12.18,0,15.89,.28,19.11-.91-.21-1.89-.35-2.8-.35-.98,0-1.89,.14-2.94,.35,.28-3.43,.28-8.89,.28-16.73v-2.24c0-3.64,0-8.47-.28-14.49,1.05,.21,1.96,.35,2.94,.35,.91,0,1.89-.14,2.8-.35-.35,3.36-.35,5.04-.35,6.79l.14,.07c2.66-5.04,6.02-7.56,9.24-7.56,.84,0,1.33,.07,2.24,.42-.49,1.12-.49,3.78-.49,5.67l-.49,.35Z"/><path class="b" d="M557.71,355.37c1.19,.21,2.31,.35,3.5,.35,1.05,0,2.03-.14,3.08-.35,2.87,9.1,6.37,18.13,10.43,27.3,3.78-7.63,7.42-18.2,10.71-27.3,.7,.21,1.47,.35,2.17,.35,.77,0,1.47-.14,2.17-.35-4.97,11.2-10.08,22.33-14.07,33.46-.7-.21-1.47-.35-2.17-.35-.77,0-1.47,.14-2.24,.35-4.27-11.13-8.47-22.26-13.58-33.46Z"/><path class="b" d="M617.84,339.62c1.96,0,3.57,1.61,3.57,3.57s-1.61,3.57-3.57,3.57-3.57-1.61-3.57-3.57,1.61-3.57,3.57-3.57Zm-2.59,28.84c0-4.2-.14-9.1-.56-13.09,1.05,.21,2.1,.35,3.15,.35s2.1-.14,3.15-.35c-.42,3.99-.56,8.89-.56,13.09v7.28c0,4.2,.14,9.1,.56,13.09-1.05-.21-2.1-.35-3.15-.35s-2.1,.14-3.15,.35c.42-3.99,.56-8.89,.56-13.09v-7.28Z"/><path class="b" d="M665.23,354.67c5.11,0,9.52,1.47,11.27,3.08-.63,1.4-1.19,2.94-1.54,4.62h-.56c-1.33-2.38-4.55-5.46-8.96-5.46-8.47,0-11.9,6.51-11.9,15.12,0,9.59,4.34,14.56,12.11,14.56,3.71,0,8.05-2.17,10.5-4.97l.35,.21c-.21,1.12-.35,2.31-.42,3.43-2.8,2.24-7.35,4.27-11.69,4.27-8.12,0-17.01-4.9-17.01-17.43s8.89-17.43,17.85-17.43Z"/><path class="b" d="M714.79,354.67c9.8,0,14.49,6.51,14.49,14.28,0,.91-.07,1.82-.14,2.73-5.04-.07-10.01-.21-14.98-.21-3.08,0-6.09,.14-9.17,.21-.07,.7-.07,1.33-.07,1.96,0,7.28,4.34,12.95,12.11,12.95,3.71,0,8.05-2.17,10.5-4.97l.35,.21-.42,3.43c-2.8,2.24-7.35,4.27-11.69,4.27-10.08,0-17.01-7.14-17.01-16.45,0-11.34,5.74-18.41,16.03-18.41Zm-9.66,14.35c2.87,.07,6.16,.21,9.1,.21s6.37-.14,9.31-.21c0-4.97-1.33-12.11-8.61-12.11-6.86,0-9.45,7.07-9.8,12.11Z"/><path class="b" d="M753.16,382.11c.98,1.89,3.99,4.83,7.91,4.83,3.5,0,6.79-2.17,6.79-6.3,0-8.68-16.52-3.57-16.52-15.4,0-6.09,4.2-10.57,11.62-10.57,3.43,0,5.6,1.26,7.77,1.96-.77,1.33-1.54,3.92-1.68,4.97h-.84c-.7-2.24-3.01-4.34-6.16-4.34-2.73,0-5.95,1.75-5.95,5.88,0,9.1,16.52,3.5,16.52,15.33,0,5.32-4.83,11.06-12.6,11.06-4.27,0-7.07-1.19-9.03-2.31,.56-1.19,1.33-3.71,1.33-5.11h.84Z"/></g><g><g><path class="b" d="M340.36,194.92c17.5-79.07,86.75-58.97,135.54-6.26,21.29,23.04-48.3-77.3-37.97-112.44,2.83-9.58,9.11-22.14,17.32-27.27,15.37-9.59,26.72-10.98,21.86-11.35-3.19-.22-29.75-1.66-53.01,16.54-16,12.54-29.81,13.39-29.81,13.39,0,0-12.8,2.95-35.12-18.7-24.96-24.23-56.94-25.49-50.54-24.39,6.42,1.06,23.17,13.62,37.65,47.9,12.58,29.8-6.12,123.5-5.92,122.59Z"/><path class="b" d="M410.26,25.83c0,14.29-9.16,25.87-20.49,25.87s-20.5-11.59-20.5-25.87S378.45,0,389.77,0s20.49,11.57,20.49,25.83Z"/></g><g><path class="b" d="M493.22,199.04c18.23-63.66,84.86-58.81,133.2,0,11.78,14.32-32.57-53.9-32.57-85.62,0-1.25,1.48-9.32,10.16-9.32,20.68,0,38.67,12.63,38.67,12.63-12.27-19.02-43.76-39.94-64.71-28.41-21.96,12.07-37.83,.48-37.83,.48,0,0-15.35-11.54-22-18.19-26.02-26.03-55.14-25.17-48.48-24,6.7,1.15,17.01,9.52,31.59,44.52,13.27,31.88-8.31,108.86-8.03,107.91Z"/><path class="b" d="M576.52,51.6c0,15.35-9.56,27.78-21.36,27.78s-21.37-12.43-21.37-27.78,9.57-27.78,21.37-27.78,21.36,12.43,21.36,27.78Z"/></g><g><path class="b" d="M297.21,199.85c-20.28-61.63-87.89-61.68-138.74-5.03-22.21,24.76,35.91-57.47,35.91-89.18,0-1.24-1.49-9.32-10.16-9.32-20.69,0-38.68,12.63-38.68,12.63,12.27-19.02,43.76-39.94,64.71-28.42,21.95,12.08,37.84,.51,37.84,.51,0,0,15.36-11.55,21.99-18.2,26.03-26.04,55.14-25.17,48.47-24-6.71,1.15-17,9.51-31.59,44.52-13.28,31.88,10.55,117.44,10.24,116.49Z"/><path class="b" d="M211.7,43.81c0,15.36,9.57,27.8,21.37,27.8s21.37-12.44,21.37-27.8-9.55-27.78-21.37-27.78-21.37,12.44-21.37,27.78Z"/></g></g></svg>